# xmcd CD database file
#
# Track frame offsets:
#	150
#	15712
#	31841
#	45528
#	60618
#	75663
#	87792
#	104468
#	120518
#	135010
#
# Disc length: 2045 seconds
#
# Revision: 0
# Processed by: cddbd v1.5.1PL2 Copyright (c) Steve Scherf et al.
# Submitted via: CDex 1.50
#
DISCID=6b07fb0a
DTITLE=Dallas Steele - Places I've Been
DYEAR=2004
DGENRE=Country
TTITLE0=Places I've Been
TTITLE1=Little Brothers
TTITLE2=Fun in the Country
TTITLE3=Love This Girl
TTITLE4=Browndog's Song
TTITLE5=I Will Live On
TTITLE6=Waltzing Matilda Again
TTITLE7=Let It Rain
TTITLE8=Rockabye
TTITLE9=Till My Dying Day
EXTD=YEAR: 2004
EXTT0=
EXTT1=
EXTT2=
EXTT3=
EXTT4=
EXTT5=
EXTT6=
EXTT7=
EXTT8=
EXTT9=
PLAYORDER=
